<svg aria-roledescription="er" role="graphics-document document" style="overflow: hidden; max-width: 100%;" xmlns="http://www.w3.org/2000/svg" width="100%" id="graph-div" height="100%" xmlns:xlink="http://www.w3.org/1999/xlink" xmlns:ev="http://www.w3.org/2001/xml-events"><style>@import url("https://cdnjs.cloudflare.com/ajax/libs/font-awesome/6.2.0/css/all.min.css");'</style><defs><marker orient="auto" markerHeight="240" markerWidth="190" refY="7" refX="0" id="MD_PARENT_START"><path d="M 18,7 L9,13 L1,7 L9,1 Z"></path></marker></defs><defs><marker orient="auto" markerHeight="28" markerWidth="20" refY="7" refX="19" id="MD_PARENT_END"><path d="M 18,7 L9,13 L1,7 L9,1 Z"></path></marker></defs><defs><marker orient="auto" markerHeight="18" markerWidth="18" refY="9" refX="0" id="ONLY_ONE_START"><path d="M9,0 L9,18 M15,0 L15,18" fill="none" stroke="gray"></path></marker></defs><defs><marker orient="auto" markerHeight="18" markerWidth="18" refY="9" refX="18" id="ONLY_ONE_END"><path d="M3,0 L3,18 M9,0 L9,18" fill="none" stroke="gray"></path></marker></defs><defs><marker orient="auto" markerHeight="18" markerWidth="30" refY="9" refX="0" id="ZERO_OR_ONE_START"><circle r="6" cy="9" cx="21" fill="white" stroke="gray"></circle><path d="M9,0 L9,18" fill="none" stroke="gray"></path></marker></defs><defs><marker orient="auto" markerHeight="18" markerWidth="30" refY="9" refX="30" id="ZERO_OR_ONE_END"><circle r="6" cy="9" cx="9" fill="white" stroke="gray"></circle><path d="M21,0 L21,18" fill="none" stroke="gray"></path></marker></defs><defs><marker orient="auto" markerHeight="36" markerWidth="45" refY="18" refX="18" id="ONE_OR_MORE_START"><path d="M0,18 Q 18,0 36,18 Q 18,36 0,18 M42,9 L42,27" fill="none" stroke="gray"></path></marker></defs><defs><marker orient="auto" markerHeight="36" markerWidth="45" refY="18" refX="27" id="ONE_OR_MORE_END"><path d="M3,9 L3,27 M9,18 Q27,0 45,18 Q27,36 9,18" fill="none" stroke="gray"></path></marker></defs><defs><marker orient="auto" markerHeight="36" markerWidth="57" refY="18" refX="18" id="ZERO_OR_MORE_START"><circle r="6" cy="18" cx="48" fill="white" stroke="gray"></circle><path d="M0,18 Q18,0 36,18 Q18,36 0,18" fill="none" stroke="gray"></path></marker></defs><defs><marker orient="auto" markerHeight="36" markerWidth="57" refY="18" refX="39" id="ZERO_OR_MORE_END"><circle r="6" cy="18" cx="9" fill="white" stroke="gray"></circle><path d="M21,18 Q39,0 57,18 Q39,36 21,18" fill="none" stroke="gray"></path></marker></defs><g id="viewport-20240724183522302" class="svg-pan-zoom_viewport" transform="matrix(1.825220786225215,0,0,1.825220786225215,343.57676265006967,78.00915607916687)" style="transform: matrix(1.82522, 0, 0, 1.82522, 343.577, 78.0092);"><style>#graph-div{font-family:"trebuchet ms",verdana,arial,sans-serif;font-size:12px;fill:#333;}#graph-div .error-icon{fill:hsl(60, 90%, 100%);}#graph-div .error-text{fill:rgb(0, 0, 0);stroke:rgb(0, 0, 0);}#graph-div .edge-thickness-normal{stroke-width:2px;}#graph-div .edge-thickness-thick{stroke-width:3.5px;}#graph-div .edge-pattern-solid{stroke-dasharray:0;}#graph-div .edge-pattern-dashed{stroke-dasharray:3;}#graph-div .edge-pattern-dotted{stroke-dasharray:2;}#graph-div .marker{fill:#0b0b0b;stroke:#0b0b0b;}#graph-div .marker.cross{stroke:#0b0b0b;}#graph-div svg{font-family:"trebuchet ms",verdana,arial,sans-serif;font-size:12px;}#graph-div .entityBox{fill:#ECECFE;stroke:#BCBCFB;}#graph-div .attributeBoxOdd{fill:#ffffff;stroke:#BCBCFB;}#graph-div .attributeBoxEven{fill:#f2f2f2;stroke:#BCBCFB;}#graph-div .relationshipLabelBox{fill:hsl(60, 90%, 100%);opacity:0.7;background-color:hsl(60, 90%, 100%);}#graph-div .relationshipLabelBox rect{opacity:0.5;}#graph-div .relationshipLine{stroke:#0b0b0b;}#graph-div .entityTitleText{text-anchor:middle;font-size:18px;fill:#333;}#graph-div #MD_PARENT_START{fill:#f5f5f5!important;stroke:#0b0b0b!important;stroke-width:1;}#graph-div #MD_PARENT_END{fill:#f5f5f5!important;stroke:#0b0b0b!important;stroke-width:1;}#graph-div :root{--mermaid-font-family:"trebuchet ms",verdana,arial,sans-serif;}</style><g></g><path marker-start="url(#ONLY_ONE_START)" marker-end="url(#ZERO_OR_MORE_END)" style="stroke: gray; fill: none;" d="M380.177,378L380.177,389.833C380.177,401.667,380.177,425.333,380.177,445.5C380.177,465.667,380.177,482.333,380.177,490.667L380.177,499" class="er relationshipLine"></path><path marker-start="url(#ONLY_ONE_START)" marker-end="url(#ZERO_OR_MORE_END)" style="stroke: gray; fill: none;" d="M41.952,170L30.519,178.333C19.086,186.667,-3.78,203.333,-15.213,230.75C-26.645,258.167,-26.645,296.333,-26.645,334.5C-26.645,372.667,-26.645,410.833,-26.645,443.75C-26.645,476.667,-26.645,504.333,-26.645,532C-26.645,559.667,-26.645,587.333,-26.645,620.25C-26.645,653.167,-26.645,691.333,-26.645,729.5C-26.645,767.667,-26.645,805.833,-26.645,844C-26.645,882.167,-26.645,920.333,-26.645,958.5C-26.645,996.667,-26.645,1034.833,-5.982,1066.615C14.681,1098.396,56.008,1123.792,76.671,1136.49L97.335,1149.188" class="er relationshipLine"></path><path marker-start="url(#ONLY_ONE_START)" marker-end="url(#ZERO_OR_MORE_END)" style="stroke: gray; fill: none;" d="M269.694,161.315L288.108,171.096C306.522,180.877,343.35,200.438,361.764,222.052C380.177,243.667,380.177,267.333,380.177,279.167L380.177,291" class="er relationshipLine"></path><path marker-start="url(#ONLY_ONE_START)" marker-end="url(#ZERO_OR_MORE_END)" style="stroke: gray; fill: none;" d="M144.847,170L144.847,178.333C144.847,186.667,144.847,203.333,144.847,220C144.847,236.667,144.847,253.333,144.847,261.667L144.847,270" class="er relationshipLine"></path><path marker-start="url(#ONLY_ONE_START)" marker-end="url(#ZERO_OR_MORE_END)" style="stroke: gray; fill: none;" d="M495.632,1023L495.632,1031.333C495.632,1039.667,495.632,1056.333,455.726,1080.31C415.821,1104.287,336.009,1135.574,296.103,1151.218L256.197,1166.862" class="er relationshipLine"></path><path marker-start="url(#ONLY_ONE_START)" marker-end="url(#ZERO_OR_MORE_END)" style="stroke: gray; fill: none;" d="M495.632,794L495.632,802.333C495.632,810.667,495.632,827.333,495.632,844C495.632,860.667,495.632,877.333,495.632,885.667L495.632,894" class="er relationshipLine"></path><path marker-start="url(#ONLY_ONE_START)" marker-end="url(#ZERO_OR_MORE_END)" style="stroke: gray; fill: none;" d="M426.081,565L437.673,573.333C449.265,581.667,472.448,598.333,484.04,615C495.632,631.667,495.632,648.333,495.632,656.667L495.632,665" class="er relationshipLine"></path><path marker-start="url(#ONLY_ONE_START)" marker-end="url(#ZERO_OR_MORE_END)" style="stroke: gray; fill: none;" d="M330.825,565L318.363,573.333C305.9,581.667,280.975,598.333,268.512,618.5C256.05,638.667,256.05,662.333,256.05,674.167L256.05,686" class="er relationshipLine"></path><g transform="translate(316.3397674560547,291 )" id="entity-Grupo-66369a23-dca4-578b-b5d4-4507d9567375"><rect height="87" width="127.67526245117188" y="0" x="0" class="er entityBox"></rect><text transform="translate(63.83763122558594,12)" style="dominant-baseline: middle; text-anchor: middle; font-size: 12px;" y="0" x="0" id="text-entity-Grupo-66369a23-dca4-578b-b5d4-4507d9567375" class="er entityLabel">Grupo</text><rect height="21" width="35.26939392089844" y="24" x="0" class="er attributeBoxOdd"></rect><text transform="translate(5,34.5)" style="dominant-baseline: middle; font-size: 10.2px;" y="0" x="0" id="text-entity-Grupo-66369a23-dca4-578b-b5d4-4507d9567375-attr-1-type" class="er entityLabel">string</text><rect height="21" width="67.60255432128906" y="24" x="35.26939392089844" class="er attributeBoxOdd"></rect><text transform="translate(40.26939392089844,34.5)" style="dominant-baseline: middle; font-size: 10.2px;" y="0" x="0" id="text-entity-Grupo-66369a23-dca4-578b-b5d4-4507d9567375-attr-1-name" class="er entityLabel">nome_grupo</text><rect height="21" width="24.803314208984375" y="24" x="102.8719482421875" class="er attributeBoxOdd"></rect><text transform="translate(107.8719482421875,34.5)" style="dominant-baseline: middle; font-size: 10.2px;" y="0" x="0" id="text-entity-Grupo-66369a23-dca4-578b-b5d4-4507d9567375-attr-1-key" class="er entityLabel">PK</text><rect height="21" width="35.26939392089844" y="45" x="0" class="er attributeBoxEven"></rect><text transform="translate(5,55.5)" style="dominant-baseline: middle; font-size: 10.2px;" y="0" x="0" id="text-entity-Grupo-66369a23-dca4-578b-b5d4-4507d9567375-attr-2-type" class="er entityLabel">string</text><rect height="21" width="67.60255432128906" y="45" x="35.26939392089844" class="er attributeBoxEven"></rect><text transform="translate(40.26939392089844,55.5)" style="dominant-baseline: middle; font-size: 10.2px;" y="0" x="0" id="text-entity-Grupo-66369a23-dca4-578b-b5d4-4507d9567375-attr-2-name" class="er entityLabel">descricao</text><rect height="21" width="24.803314208984375" y="45" x="102.8719482421875" class="er attributeBoxEven"></rect><text transform="translate(107.8719482421875,55.5)" style="dominant-baseline: middle; font-size: 10.2px;" y="0" x="0" id="text-entity-Grupo-66369a23-dca4-578b-b5d4-4507d9567375-attr-2-key" class="er entityLabel"></text><rect height="21" width="35.26939392089844" y="66" x="0" class="er attributeBoxOdd"></rect><text transform="translate(5,76.5)" style="dominant-baseline: middle; font-size: 10.2px;" y="0" x="0" id="text-entity-Grupo-66369a23-dca4-578b-b5d4-4507d9567375-attr-3-type" class="er entityLabel">int</text><rect height="21" width="67.60255432128906" y="66" x="35.26939392089844" class="er attributeBoxOdd"></rect><text transform="translate(40.26939392089844,76.5)" style="dominant-baseline: middle; font-size: 10.2px;" y="0" x="0" id="text-entity-Grupo-66369a23-dca4-578b-b5d4-4507d9567375-attr-3-name" class="er entityLabel">perfil_id</text><rect height="21" width="24.803314208984375" y="66" x="102.8719482421875" class="er attributeBoxOdd"></rect><text transform="translate(107.8719482421875,76.5)" style="dominant-baseline: middle; font-size: 10.2px;" y="0" x="0" id="text-entity-Grupo-66369a23-dca4-578b-b5d4-4507d9567375-attr-3-key" class="er entityLabel">FK</text></g><g transform="translate(323.15055084228516,499 )" id="entity-Perfil-99743d06-dd9d-5a10-afed-77a384fe108b"><rect height="66" width="114.05369567871094" y="0" x="0" class="er entityBox"></rect><text transform="translate(57.02684783935547,12)" style="dominant-baseline: middle; text-anchor: middle; font-size: 12px;" y="0" x="0" id="text-entity-Perfil-99743d06-dd9d-5a10-afed-77a384fe108b" class="er entityLabel">Perfil</text><rect height="21" width="35.26939392089844" y="24" x="0" class="er attributeBoxOdd"></rect><text transform="translate(5,34.5)" style="dominant-baseline: middle; font-size: 10.2px;" y="0" x="0" id="text-entity-Perfil-99743d06-dd9d-5a10-afed-77a384fe108b-attr-1-type" class="er entityLabel">int</text><rect height="21" width="53.980987548828125" y="24" x="35.26939392089844" class="er attributeBoxOdd"></rect><text transform="translate(40.26939392089844,34.5)" style="dominant-baseline: middle; font-size: 10.2px;" y="0" x="0" id="text-entity-Perfil-99743d06-dd9d-5a10-afed-77a384fe108b-attr-1-name" class="er entityLabel">id</text><rect height="21" width="24.803314208984375" y="24" x="89.25038146972656" class="er attributeBoxOdd"></rect><text transform="translate(94.25038146972656,34.5)" style="dominant-baseline: middle; font-size: 10.2px;" y="0" x="0" id="text-entity-Perfil-99743d06-dd9d-5a10-afed-77a384fe108b-attr-1-key" class="er entityLabel">PK</text><rect height="21" width="35.26939392089844" y="45" x="0" class="er attributeBoxEven"></rect><text transform="translate(5,55.5)" style="dominant-baseline: middle; font-size: 10.2px;" y="0" x="0" id="text-entity-Perfil-99743d06-dd9d-5a10-afed-77a384fe108b-attr-2-type" class="er entityLabel">string</text><rect height="21" width="53.980987548828125" y="45" x="35.26939392089844" class="er attributeBoxEven"></rect><text transform="translate(40.26939392089844,55.5)" style="dominant-baseline: middle; font-size: 10.2px;" y="0" x="0" id="text-entity-Perfil-99743d06-dd9d-5a10-afed-77a384fe108b-attr-2-name" class="er entityLabel">descricao</text><rect height="21" width="24.803314208984375" y="45" x="89.25038146972656" class="er attributeBoxEven"></rect><text transform="translate(94.25038146972656,55.5)" style="dominant-baseline: middle; font-size: 10.2px;" y="0" x="0" id="text-entity-Perfil-99743d06-dd9d-5a10-afed-77a384fe108b-attr-2-key" class="er entityLabel"></text></g><g transform="translate(20,20 )" id="entity-Usuario-0c7fd897-052d-59c3-b4ab-b420e3294af2"><rect height="150" width="249.6943359375" y="0" x="0" class="er entityBox"></rect><text transform="translate(124.84716796875,12)" style="dominant-baseline: middle; text-anchor: middle; font-size: 12px;" y="0" x="0" id="text-entity-Usuario-0c7fd897-052d-59c3-b4ab-b420e3294af2" class="er entityLabel">Usuario</text><rect height="21" width="49.44877624511719" y="24" x="0" class="er attributeBoxOdd"></rect><text transform="translate(5,34.5)" style="dominant-baseline: middle; font-size: 10.2px;" y="0" x="0" id="text-entity-Usuario-0c7fd897-052d-59c3-b4ab-b420e3294af2-attr-1-type" class="er entityLabel">int</text><rect height="21" width="67.60255432128906" y="24" x="49.44877624511719" class="er attributeBoxOdd"></rect><text transform="translate(54.44877624511719,34.5)" style="dominant-baseline: middle; font-size: 10.2px;" y="0" x="0" id="text-entity-Usuario-0c7fd897-052d-59c3-b4ab-b420e3294af2-attr-1-name" class="er entityLabel">id</text><rect height="21" width="40.67106628417969" y="24" x="117.05133056640625" class="er attributeBoxOdd"></rect><text transform="translate(122.05133056640625,34.5)" style="dominant-baseline: middle; font-size: 10.2px;" y="0" x="0" id="text-entity-Usuario-0c7fd897-052d-59c3-b4ab-b420e3294af2-attr-1-key" class="er entityLabel">PK,FK</text><rect height="21" width="91.97193908691406" y="24" x="157.72239685058594" class="er attributeBoxOdd"></rect><text transform="translate(162.72239685058594,34.5)" style="dominant-baseline: middle; font-size: 10.2px;" y="0" x="0" id="text-entity-Usuario-0c7fd897-052d-59c3-b4ab-b420e3294af2-attr-1-comment" class="er entityLabel"></text><rect height="21" width="49.44877624511719" y="45" x="0" class="er attributeBoxEven"></rect><text transform="translate(5,55.5)" style="dominant-baseline: middle; font-size: 10.2px;" y="0" x="0" id="text-entity-Usuario-0c7fd897-052d-59c3-b4ab-b420e3294af2-attr-2-type" class="er entityLabel">string</text><rect height="21" width="67.60255432128906" y="45" x="49.44877624511719" class="er attributeBoxEven"></rect><text transform="translate(54.44877624511719,55.5)" style="dominant-baseline: middle; font-size: 10.2px;" y="0" x="0" id="text-entity-Usuario-0c7fd897-052d-59c3-b4ab-b420e3294af2-attr-2-name" class="er entityLabel">usuario</text><rect height="21" width="40.67106628417969" y="45" x="117.05133056640625" class="er attributeBoxEven"></rect><text transform="translate(122.05133056640625,55.5)" style="dominant-baseline: middle; font-size: 10.2px;" y="0" x="0" id="text-entity-Usuario-0c7fd897-052d-59c3-b4ab-b420e3294af2-attr-2-key" class="er entityLabel"></text><rect height="21" width="91.97193908691406" y="45" x="157.72239685058594" class="er attributeBoxEven"></rect><text transform="translate(162.72239685058594,55.5)" style="dominant-baseline: middle; font-size: 10.2px;" y="0" x="0" id="text-entity-Usuario-0c7fd897-052d-59c3-b4ab-b420e3294af2-attr-2-comment" class="er entityLabel">Unique username</text><rect height="21" width="49.44877624511719" y="66" x="0" class="er attributeBoxOdd"></rect><text transform="translate(5,76.5)" style="dominant-baseline: middle; font-size: 10.2px;" y="0" x="0" id="text-entity-Usuario-0c7fd897-052d-59c3-b4ab-b420e3294af2-attr-3-type" class="er entityLabel">string</text><rect height="21" width="67.60255432128906" y="66" x="49.44877624511719" class="er attributeBoxOdd"></rect><text transform="translate(54.44877624511719,76.5)" style="dominant-baseline: middle; font-size: 10.2px;" y="0" x="0" id="text-entity-Usuario-0c7fd897-052d-59c3-b4ab-b420e3294af2-attr-3-name" class="er entityLabel">senha</text><rect height="21" width="40.67106628417969" y="66" x="117.05133056640625" class="er attributeBoxOdd"></rect><text transform="translate(122.05133056640625,76.5)" style="dominant-baseline: middle; font-size: 10.2px;" y="0" x="0" id="text-entity-Usuario-0c7fd897-052d-59c3-b4ab-b420e3294af2-attr-3-key" class="er entityLabel"></text><rect height="21" width="91.97193908691406" y="66" x="157.72239685058594" class="er attributeBoxOdd"></rect><text transform="translate(162.72239685058594,76.5)" style="dominant-baseline: middle; font-size: 10.2px;" y="0" x="0" id="text-entity-Usuario-0c7fd897-052d-59c3-b4ab-b420e3294af2-attr-3-comment" class="er entityLabel">Hashed password</text><rect height="21" width="49.44877624511719" y="87" x="0" class="er attributeBoxEven"></rect><text transform="translate(5,97.5)" style="dominant-baseline: middle; font-size: 10.2px;" y="0" x="0" id="text-entity-Usuario-0c7fd897-052d-59c3-b4ab-b420e3294af2-attr-4-type" class="er entityLabel">datetime</text><rect height="21" width="67.60255432128906" y="87" x="49.44877624511719" class="er attributeBoxEven"></rect><text transform="translate(54.44877624511719,97.5)" style="dominant-baseline: middle; font-size: 10.2px;" y="0" x="0" id="text-entity-Usuario-0c7fd897-052d-59c3-b4ab-b420e3294af2-attr-4-name" class="er entityLabel">ultimo_login</text><rect height="21" width="40.67106628417969" y="87" x="117.05133056640625" class="er attributeBoxEven"></rect><text transform="translate(122.05133056640625,97.5)" style="dominant-baseline: middle; font-size: 10.2px;" y="0" x="0" id="text-entity-Usuario-0c7fd897-052d-59c3-b4ab-b420e3294af2-attr-4-key" class="er entityLabel"></text><rect height="21" width="91.97193908691406" y="87" x="157.72239685058594" class="er attributeBoxEven"></rect><text transform="translate(162.72239685058594,97.5)" style="dominant-baseline: middle; font-size: 10.2px;" y="0" x="0" id="text-entity-Usuario-0c7fd897-052d-59c3-b4ab-b420e3294af2-attr-4-comment" class="er entityLabel"></text><rect height="21" width="49.44877624511719" y="108" x="0" class="er attributeBoxOdd"></rect><text transform="translate(5,118.5)" style="dominant-baseline: middle; font-size: 10.2px;" y="0" x="0" id="text-entity-Usuario-0c7fd897-052d-59c3-b4ab-b420e3294af2-attr-5-type" class="er entityLabel">boolean</text><rect height="21" width="67.60255432128906" y="108" x="49.44877624511719" class="er attributeBoxOdd"></rect><text transform="translate(54.44877624511719,118.5)" style="dominant-baseline: middle; font-size: 10.2px;" y="0" x="0" id="text-entity-Usuario-0c7fd897-052d-59c3-b4ab-b420e3294af2-attr-5-name" class="er entityLabel">ativo</text><rect height="21" width="40.67106628417969" y="108" x="117.05133056640625" class="er attributeBoxOdd"></rect><text transform="translate(122.05133056640625,118.5)" style="dominant-baseline: middle; font-size: 10.2px;" y="0" x="0" id="text-entity-Usuario-0c7fd897-052d-59c3-b4ab-b420e3294af2-attr-5-key" class="er entityLabel"></text><rect height="21" width="91.97193908691406" y="108" x="157.72239685058594" class="er attributeBoxOdd"></rect><text transform="translate(162.72239685058594,118.5)" style="dominant-baseline: middle; font-size: 10.2px;" y="0" x="0" id="text-entity-Usuario-0c7fd897-052d-59c3-b4ab-b420e3294af2-attr-5-comment" class="er entityLabel"></text><rect height="21" width="49.44877624511719" y="129" x="0" class="er attributeBoxEven"></rect><text transform="translate(5,139.5)" style="dominant-baseline: middle; font-size: 10.2px;" y="0" x="0" id="text-entity-Usuario-0c7fd897-052d-59c3-b4ab-b420e3294af2-attr-6-type" class="er entityLabel">string</text><rect height="21" width="67.60255432128906" y="129" x="49.44877624511719" class="er attributeBoxEven"></rect><text transform="translate(54.44877624511719,139.5)" style="dominant-baseline: middle; font-size: 10.2px;" y="0" x="0" id="text-entity-Usuario-0c7fd897-052d-59c3-b4ab-b420e3294af2-attr-6-name" class="er entityLabel">nome_grupo</text><rect height="21" width="40.67106628417969" y="129" x="117.05133056640625" class="er attributeBoxEven"></rect><text transform="translate(122.05133056640625,139.5)" style="dominant-baseline: middle; font-size: 10.2px;" y="0" x="0" id="text-entity-Usuario-0c7fd897-052d-59c3-b4ab-b420e3294af2-attr-6-key" class="er entityLabel">FK</text><rect height="21" width="91.97193908691406" y="129" x="157.72239685058594" class="er attributeBoxEven"></rect><text transform="translate(162.72239685058594,139.5)" style="dominant-baseline: middle; font-size: 10.2px;" y="0" x="0" id="text-entity-Usuario-0c7fd897-052d-59c3-b4ab-b420e3294af2-attr-6-comment" class="er entityLabel"></text></g><g transform="translate(97.33451843261719,1123 )" id="entity-Log-472337e0-2137-5e38-bbc7-43e8b58c0118"><rect height="150" width="158.86293029785156" y="0" x="0" class="er entityBox"></rect><text transform="translate(79.43146514892578,12)" style="dominant-baseline: middle; text-anchor: middle; font-size: 12px;" y="0" x="0" id="text-entity-Log-472337e0-2137-5e38-bbc7-43e8b58c0118" class="er entityLabel">Log</text><rect height="21" width="49.44877624511719" y="24" x="0" class="er attributeBoxOdd"></rect><text transform="translate(5,34.5)" style="dominant-baseline: middle; font-size: 10.2px;" y="0" x="0" id="text-entity-Log-472337e0-2137-5e38-bbc7-43e8b58c0118-attr-1-type" class="er entityLabel">int</text><rect height="21" width="84.61083984375" y="24" x="49.44877624511719" class="er attributeBoxOdd"></rect><text transform="translate(54.44877624511719,34.5)" style="dominant-baseline: middle; font-size: 10.2px;" y="0" x="0" id="text-entity-Log-472337e0-2137-5e38-bbc7-43e8b58c0118-attr-1-name" class="er entityLabel">id</text><rect height="21" width="24.803314208984375" y="24" x="134.0596160888672" class="er attributeBoxOdd"></rect><text transform="translate(139.0596160888672,34.5)" style="dominant-baseline: middle; font-size: 10.2px;" y="0" x="0" id="text-entity-Log-472337e0-2137-5e38-bbc7-43e8b58c0118-attr-1-key" class="er entityLabel">PK</text><rect height="21" width="49.44877624511719" y="45" x="0" class="er attributeBoxEven"></rect><text transform="translate(5,55.5)" style="dominant-baseline: middle; font-size: 10.2px;" y="0" x="0" id="text-entity-Log-472337e0-2137-5e38-bbc7-43e8b58c0118-attr-2-type" class="er entityLabel">string</text><rect height="21" width="84.61083984375" y="45" x="49.44877624511719" class="er attributeBoxEven"></rect><text transform="translate(54.44877624511719,55.5)" style="dominant-baseline: middle; font-size: 10.2px;" y="0" x="0" id="text-entity-Log-472337e0-2137-5e38-bbc7-43e8b58c0118-attr-2-name" class="er entityLabel">tipo</text><rect height="21" width="24.803314208984375" y="45" x="134.0596160888672" class="er attributeBoxEven"></rect><text transform="translate(139.0596160888672,55.5)" style="dominant-baseline: middle; font-size: 10.2px;" y="0" x="0" id="text-entity-Log-472337e0-2137-5e38-bbc7-43e8b58c0118-attr-2-key" class="er entityLabel"></text><rect height="21" width="49.44877624511719" y="66" x="0" class="er attributeBoxOdd"></rect><text transform="translate(5,76.5)" style="dominant-baseline: middle; font-size: 10.2px;" y="0" x="0" id="text-entity-Log-472337e0-2137-5e38-bbc7-43e8b58c0118-attr-3-type" class="er entityLabel">int</text><rect height="21" width="84.61083984375" y="66" x="49.44877624511719" class="er attributeBoxOdd"></rect><text transform="translate(54.44877624511719,76.5)" style="dominant-baseline: middle; font-size: 10.2px;" y="0" x="0" id="text-entity-Log-472337e0-2137-5e38-bbc7-43e8b58c0118-attr-3-name" class="er entityLabel">usuario_id</text><rect height="21" width="24.803314208984375" y="66" x="134.0596160888672" class="er attributeBoxOdd"></rect><text transform="translate(139.0596160888672,76.5)" style="dominant-baseline: middle; font-size: 10.2px;" y="0" x="0" id="text-entity-Log-472337e0-2137-5e38-bbc7-43e8b58c0118-attr-3-key" class="er entityLabel">FK</text><rect height="21" width="49.44877624511719" y="87" x="0" class="er attributeBoxEven"></rect><text transform="translate(5,97.5)" style="dominant-baseline: middle; font-size: 10.2px;" y="0" x="0" id="text-entity-Log-472337e0-2137-5e38-bbc7-43e8b58c0118-attr-4-type" class="er entityLabel">string</text><rect height="21" width="84.61083984375" y="87" x="49.44877624511719" class="er attributeBoxEven"></rect><text transform="translate(54.44877624511719,97.5)" style="dominant-baseline: middle; font-size: 10.2px;" y="0" x="0" id="text-entity-Log-472337e0-2137-5e38-bbc7-43e8b58c0118-attr-4-name" class="er entityLabel">nome_aplicacao</text><rect height="21" width="24.803314208984375" y="87" x="134.0596160888672" class="er attributeBoxEven"></rect><text transform="translate(139.0596160888672,97.5)" style="dominant-baseline: middle; font-size: 10.2px;" y="0" x="0" id="text-entity-Log-472337e0-2137-5e38-bbc7-43e8b58c0118-attr-4-key" class="er entityLabel">FK</text><rect height="21" width="49.44877624511719" y="108" x="0" class="er attributeBoxOdd"></rect><text transform="translate(5,118.5)" style="dominant-baseline: middle; font-size: 10.2px;" y="0" x="0" id="text-entity-Log-472337e0-2137-5e38-bbc7-43e8b58c0118-attr-5-type" class="er entityLabel">datetime</text><rect height="21" width="84.61083984375" y="108" x="49.44877624511719" class="er attributeBoxOdd"></rect><text transform="translate(54.44877624511719,118.5)" style="dominant-baseline: middle; font-size: 10.2px;" y="0" x="0" id="text-entity-Log-472337e0-2137-5e38-bbc7-43e8b58c0118-attr-5-name" class="er entityLabel">datahora</text><rect height="21" width="24.803314208984375" y="108" x="134.0596160888672" class="er attributeBoxOdd"></rect><text transform="translate(139.0596160888672,118.5)" style="dominant-baseline: middle; font-size: 10.2px;" y="0" x="0" id="text-entity-Log-472337e0-2137-5e38-bbc7-43e8b58c0118-attr-5-key" class="er entityLabel"></text><rect height="21" width="49.44877624511719" y="129" x="0" class="er attributeBoxEven"></rect><text transform="translate(5,139.5)" style="dominant-baseline: middle; font-size: 10.2px;" y="0" x="0" id="text-entity-Log-472337e0-2137-5e38-bbc7-43e8b58c0118-attr-6-type" class="er entityLabel">string</text><rect height="21" width="84.61083984375" y="129" x="49.44877624511719" class="er attributeBoxEven"></rect><text transform="translate(54.44877624511719,139.5)" style="dominant-baseline: middle; font-size: 10.2px;" y="0" x="0" id="text-entity-Log-472337e0-2137-5e38-bbc7-43e8b58c0118-attr-6-name" class="er entityLabel">mensagem</text><rect height="21" width="24.803314208984375" y="129" x="134.0596160888672" class="er attributeBoxEven"></rect><text transform="translate(139.0596160888672,139.5)" style="dominant-baseline: middle; font-size: 10.2px;" y="0" x="0" id="text-entity-Log-472337e0-2137-5e38-bbc7-43e8b58c0118-attr-6-key" class="er entityLabel"></text></g><g transform="translate(73.35456848144531,270 )" id="entity-Pessoa-0cf1c23e-f9bc-5794-acbf-e7852fcad1c9"><rect height="129" width="142.98519897460938" y="0" x="0" class="er entityBox"></rect><text transform="translate(71.49259948730469,12)" style="dominant-baseline: middle; text-anchor: middle; font-size: 12px;" y="0" x="0" id="text-entity-Pessoa-0cf1c23e-f9bc-5794-acbf-e7852fcad1c9" class="er entityLabel">Pessoa</text><rect height="21" width="49.44877624511719" y="24" x="0" class="er attributeBoxOdd"></rect><text transform="translate(5,34.5)" style="dominant-baseline: middle; font-size: 10.2px;" y="0" x="0" id="text-entity-Pessoa-0cf1c23e-f9bc-5794-acbf-e7852fcad1c9-attr-1-type" class="er entityLabel">int</text><rect height="21" width="68.73310852050781" y="24" x="49.44877624511719" class="er attributeBoxOdd"></rect><text transform="translate(54.44877624511719,34.5)" style="dominant-baseline: middle; font-size: 10.2px;" y="0" x="0" id="text-entity-Pessoa-0cf1c23e-f9bc-5794-acbf-e7852fcad1c9-attr-1-name" class="er entityLabel">id</text><rect height="21" width="24.803314208984375" y="24" x="118.181884765625" class="er attributeBoxOdd"></rect><text transform="translate(123.181884765625,34.5)" style="dominant-baseline: middle; font-size: 10.2px;" y="0" x="0" id="text-entity-Pessoa-0cf1c23e-f9bc-5794-acbf-e7852fcad1c9-attr-1-key" class="er entityLabel">PK</text><rect height="21" width="49.44877624511719" y="45" x="0" class="er attributeBoxEven"></rect><text transform="translate(5,55.5)" style="dominant-baseline: middle; font-size: 10.2px;" y="0" x="0" id="text-entity-Pessoa-0cf1c23e-f9bc-5794-acbf-e7852fcad1c9-attr-2-type" class="er entityLabel">blob</text><rect height="21" width="68.73310852050781" y="45" x="49.44877624511719" class="er attributeBoxEven"></rect><text transform="translate(54.44877624511719,55.5)" style="dominant-baseline: middle; font-size: 10.2px;" y="0" x="0" id="text-entity-Pessoa-0cf1c23e-f9bc-5794-acbf-e7852fcad1c9-attr-2-name" class="er entityLabel">foto3x4</text><rect height="21" width="24.803314208984375" y="45" x="118.181884765625" class="er attributeBoxEven"></rect><text transform="translate(123.181884765625,55.5)" style="dominant-baseline: middle; font-size: 10.2px;" y="0" x="0" id="text-entity-Pessoa-0cf1c23e-f9bc-5794-acbf-e7852fcad1c9-attr-2-key" class="er entityLabel"></text><rect height="21" width="49.44877624511719" y="66" x="0" class="er attributeBoxOdd"></rect><text transform="translate(5,76.5)" style="dominant-baseline: middle; font-size: 10.2px;" y="0" x="0" id="text-entity-Pessoa-0cf1c23e-f9bc-5794-acbf-e7852fcad1c9-attr-3-type" class="er entityLabel">string</text><rect height="21" width="68.73310852050781" y="66" x="49.44877624511719" class="er attributeBoxOdd"></rect><text transform="translate(54.44877624511719,76.5)" style="dominant-baseline: middle; font-size: 10.2px;" y="0" x="0" id="text-entity-Pessoa-0cf1c23e-f9bc-5794-acbf-e7852fcad1c9-attr-3-name" class="er entityLabel">nome</text><rect height="21" width="24.803314208984375" y="66" x="118.181884765625" class="er attributeBoxOdd"></rect><text transform="translate(123.181884765625,76.5)" style="dominant-baseline: middle; font-size: 10.2px;" y="0" x="0" id="text-entity-Pessoa-0cf1c23e-f9bc-5794-acbf-e7852fcad1c9-attr-3-key" class="er entityLabel"></text><rect height="21" width="49.44877624511719" y="87" x="0" class="er attributeBoxEven"></rect><text transform="translate(5,97.5)" style="dominant-baseline: middle; font-size: 10.2px;" y="0" x="0" id="text-entity-Pessoa-0cf1c23e-f9bc-5794-acbf-e7852fcad1c9-attr-4-type" class="er entityLabel">string</text><rect height="21" width="68.73310852050781" y="87" x="49.44877624511719" class="er attributeBoxEven"></rect><text transform="translate(54.44877624511719,97.5)" style="dominant-baseline: middle; font-size: 10.2px;" y="0" x="0" id="text-entity-Pessoa-0cf1c23e-f9bc-5794-acbf-e7852fcad1c9-attr-4-name" class="er entityLabel">email</text><rect height="21" width="24.803314208984375" y="87" x="118.181884765625" class="er attributeBoxEven"></rect><text transform="translate(123.181884765625,97.5)" style="dominant-baseline: middle; font-size: 10.2px;" y="0" x="0" id="text-entity-Pessoa-0cf1c23e-f9bc-5794-acbf-e7852fcad1c9-attr-4-key" class="er entityLabel"></text><rect height="21" width="49.44877624511719" y="108" x="0" class="er attributeBoxOdd"></rect><text transform="translate(5,118.5)" style="dominant-baseline: middle; font-size: 10.2px;" y="0" x="0" id="text-entity-Pessoa-0cf1c23e-f9bc-5794-acbf-e7852fcad1c9-attr-5-type" class="er entityLabel">datetime</text><rect height="21" width="68.73310852050781" y="108" x="49.44877624511719" class="er attributeBoxOdd"></rect><text transform="translate(54.44877624511719,118.5)" style="dominant-baseline: middle; font-size: 10.2px;" y="0" x="0" id="text-entity-Pessoa-0cf1c23e-f9bc-5794-acbf-e7852fcad1c9-attr-5-name" class="er entityLabel">data_criacao</text><rect height="21" width="24.803314208984375" y="108" x="118.181884765625" class="er attributeBoxOdd"></rect><text transform="translate(123.181884765625,118.5)" style="dominant-baseline: middle; font-size: 10.2px;" y="0" x="0" id="text-entity-Pessoa-0cf1c23e-f9bc-5794-acbf-e7852fcad1c9-attr-5-key" class="er entityLabel"></text></g><g transform="translate(416.3691711425781,894 )" id="entity-Aplicacao-85d7f463-f8be-5c9b-8307-75b19f544ec9"><rect height="129" width="158.5258331298828" y="0" x="0" class="er entityBox"></rect><text transform="translate(79.2629165649414,12)" style="dominant-baseline: middle; text-anchor: middle; font-size: 12px;" y="0" x="0" id="text-entity-Aplicacao-85d7f463-f8be-5c9b-8307-75b19f544ec9" class="er entityLabel">Aplicacao</text><rect height="21" width="35.26939392089844" y="24" x="0" class="er attributeBoxOdd"></rect><text transform="translate(5,34.5)" style="dominant-baseline: middle; font-size: 10.2px;" y="0" x="0" id="text-entity-Aplicacao-85d7f463-f8be-5c9b-8307-75b19f544ec9-attr-1-type" class="er entityLabel">string</text><rect height="21" width="98.453125" y="24" x="35.26939392089844" class="er attributeBoxOdd"></rect><text transform="translate(40.26939392089844,34.5)" style="dominant-baseline: middle; font-size: 10.2px;" y="0" x="0" id="text-entity-Aplicacao-85d7f463-f8be-5c9b-8307-75b19f544ec9-attr-1-name" class="er entityLabel">nome</text><rect height="21" width="24.803314208984375" y="24" x="133.72251892089844" class="er attributeBoxOdd"></rect><text transform="translate(138.72251892089844,34.5)" style="dominant-baseline: middle; font-size: 10.2px;" y="0" x="0" id="text-entity-Aplicacao-85d7f463-f8be-5c9b-8307-75b19f544ec9-attr-1-key" class="er entityLabel">PK</text><rect height="21" width="35.26939392089844" y="45" x="0" class="er attributeBoxEven"></rect><text transform="translate(5,55.5)" style="dominant-baseline: middle; font-size: 10.2px;" y="0" x="0" id="text-entity-Aplicacao-85d7f463-f8be-5c9b-8307-75b19f544ec9-attr-2-type" class="er entityLabel">string</text><rect height="21" width="98.453125" y="45" x="35.26939392089844" class="er attributeBoxEven"></rect><text transform="translate(40.26939392089844,55.5)" style="dominant-baseline: middle; font-size: 10.2px;" y="0" x="0" id="text-entity-Aplicacao-85d7f463-f8be-5c9b-8307-75b19f544ec9-attr-2-name" class="er entityLabel">descricao</text><rect height="21" width="24.803314208984375" y="45" x="133.72251892089844" class="er attributeBoxEven"></rect><text transform="translate(138.72251892089844,55.5)" style="dominant-baseline: middle; font-size: 10.2px;" y="0" x="0" id="text-entity-Aplicacao-85d7f463-f8be-5c9b-8307-75b19f544ec9-attr-2-key" class="er entityLabel"></text><rect height="21" width="35.26939392089844" y="66" x="0" class="er attributeBoxOdd"></rect><text transform="translate(5,76.5)" style="dominant-baseline: middle; font-size: 10.2px;" y="0" x="0" id="text-entity-Aplicacao-85d7f463-f8be-5c9b-8307-75b19f544ec9-attr-3-type" class="er entityLabel">string</text><rect height="21" width="98.453125" y="66" x="35.26939392089844" class="er attributeBoxOdd"></rect><text transform="translate(40.26939392089844,76.5)" style="dominant-baseline: middle; font-size: 10.2px;" y="0" x="0" id="text-entity-Aplicacao-85d7f463-f8be-5c9b-8307-75b19f544ec9-attr-3-name" class="er entityLabel">caminhoExecutavel</text><rect height="21" width="24.803314208984375" y="66" x="133.72251892089844" class="er attributeBoxOdd"></rect><text transform="translate(138.72251892089844,76.5)" style="dominant-baseline: middle; font-size: 10.2px;" y="0" x="0" id="text-entity-Aplicacao-85d7f463-f8be-5c9b-8307-75b19f544ec9-attr-3-key" class="er entityLabel"></text><rect height="21" width="35.26939392089844" y="87" x="0" class="er attributeBoxEven"></rect><text transform="translate(5,97.5)" style="dominant-baseline: middle; font-size: 10.2px;" y="0" x="0" id="text-entity-Aplicacao-85d7f463-f8be-5c9b-8307-75b19f544ec9-attr-4-type" class="er entityLabel">blob</text><rect height="21" width="98.453125" y="87" x="35.26939392089844" class="er attributeBoxEven"></rect><text transform="translate(40.26939392089844,97.5)" style="dominant-baseline: middle; font-size: 10.2px;" y="0" x="0" id="text-entity-Aplicacao-85d7f463-f8be-5c9b-8307-75b19f544ec9-attr-4-name" class="er entityLabel">icone</text><rect height="21" width="24.803314208984375" y="87" x="133.72251892089844" class="er attributeBoxEven"></rect><text transform="translate(138.72251892089844,97.5)" style="dominant-baseline: middle; font-size: 10.2px;" y="0" x="0" id="text-entity-Aplicacao-85d7f463-f8be-5c9b-8307-75b19f544ec9-attr-4-key" class="er entityLabel"></text><rect height="21" width="35.26939392089844" y="108" x="0" class="er attributeBoxOdd"></rect><text transform="translate(5,118.5)" style="dominant-baseline: middle; font-size: 10.2px;" y="0" x="0" id="text-entity-Aplicacao-85d7f463-f8be-5c9b-8307-75b19f544ec9-attr-5-type" class="er entityLabel">string</text><rect height="21" width="98.453125" y="108" x="35.26939392089844" class="er attributeBoxOdd"></rect><text transform="translate(40.26939392089844,118.5)" style="dominant-baseline: middle; font-size: 10.2px;" y="0" x="0" id="text-entity-Aplicacao-85d7f463-f8be-5c9b-8307-75b19f544ec9-attr-5-name" class="er entityLabel">categoria</text><rect height="21" width="24.803314208984375" y="108" x="133.72251892089844" class="er attributeBoxOdd"></rect><text transform="translate(138.72251892089844,118.5)" style="dominant-baseline: middle; font-size: 10.2px;" y="0" x="0" id="text-entity-Aplicacao-85d7f463-f8be-5c9b-8307-75b19f544ec9-attr-5-key" class="er entityLabel"></text></g><g transform="translate(423.2903137207031,665 )" id="entity-Permissao-bb0bce31-bca7-58d4-82a4-94cd917b292a"><rect height="129" width="144.6835479736328" y="0" x="0" class="er entityBox"></rect><text transform="translate(72.3417739868164,12)" style="dominant-baseline: middle; text-anchor: middle; font-size: 12px;" y="0" x="0" id="text-entity-Permissao-bb0bce31-bca7-58d4-82a4-94cd917b292a" class="er entityLabel">Permissao</text><rect height="21" width="35.26939392089844" y="24" x="0" class="er attributeBoxOdd"></rect><text transform="translate(5,34.5)" style="dominant-baseline: middle; font-size: 10.2px;" y="0" x="0" id="text-entity-Permissao-bb0bce31-bca7-58d4-82a4-94cd917b292a-attr-1-type" class="er entityLabel">int</text><rect height="21" width="84.61083984375" y="24" x="35.26939392089844" class="er attributeBoxOdd"></rect><text transform="translate(40.26939392089844,34.5)" style="dominant-baseline: middle; font-size: 10.2px;" y="0" x="0" id="text-entity-Permissao-bb0bce31-bca7-58d4-82a4-94cd917b292a-attr-1-name" class="er entityLabel">id</text><rect height="21" width="24.803314208984375" y="24" x="119.88023376464844" class="er attributeBoxOdd"></rect><text transform="translate(124.88023376464844,34.5)" style="dominant-baseline: middle; font-size: 10.2px;" y="0" x="0" id="text-entity-Permissao-bb0bce31-bca7-58d4-82a4-94cd917b292a-attr-1-key" class="er entityLabel">PK</text><rect height="21" width="35.26939392089844" y="45" x="0" class="er attributeBoxEven"></rect><text transform="translate(5,55.5)" style="dominant-baseline: middle; font-size: 10.2px;" y="0" x="0" id="text-entity-Permissao-bb0bce31-bca7-58d4-82a4-94cd917b292a-attr-2-type" class="er entityLabel">string</text><rect height="21" width="84.61083984375" y="45" x="35.26939392089844" class="er attributeBoxEven"></rect><text transform="translate(40.26939392089844,55.5)" style="dominant-baseline: middle; font-size: 10.2px;" y="0" x="0" id="text-entity-Permissao-bb0bce31-bca7-58d4-82a4-94cd917b292a-attr-2-name" class="er entityLabel">nome</text><rect height="21" width="24.803314208984375" y="45" x="119.88023376464844" class="er attributeBoxEven"></rect><text transform="translate(124.88023376464844,55.5)" style="dominant-baseline: middle; font-size: 10.2px;" y="0" x="0" id="text-entity-Permissao-bb0bce31-bca7-58d4-82a4-94cd917b292a-attr-2-key" class="er entityLabel"></text><rect height="21" width="35.26939392089844" y="66" x="0" class="er attributeBoxOdd"></rect><text transform="translate(5,76.5)" style="dominant-baseline: middle; font-size: 10.2px;" y="0" x="0" id="text-entity-Permissao-bb0bce31-bca7-58d4-82a4-94cd917b292a-attr-3-type" class="er entityLabel">string</text><rect height="21" width="84.61083984375" y="66" x="35.26939392089844" class="er attributeBoxOdd"></rect><text transform="translate(40.26939392089844,76.5)" style="dominant-baseline: middle; font-size: 10.2px;" y="0" x="0" id="text-entity-Permissao-bb0bce31-bca7-58d4-82a4-94cd917b292a-attr-3-name" class="er entityLabel">descricao</text><rect height="21" width="24.803314208984375" y="66" x="119.88023376464844" class="er attributeBoxOdd"></rect><text transform="translate(124.88023376464844,76.5)" style="dominant-baseline: middle; font-size: 10.2px;" y="0" x="0" id="text-entity-Permissao-bb0bce31-bca7-58d4-82a4-94cd917b292a-attr-3-key" class="er entityLabel"></text><rect height="21" width="35.26939392089844" y="87" x="0" class="er attributeBoxEven"></rect><text transform="translate(5,97.5)" style="dominant-baseline: middle; font-size: 10.2px;" y="0" x="0" id="text-entity-Permissao-bb0bce31-bca7-58d4-82a4-94cd917b292a-attr-4-type" class="er entityLabel">int</text><rect height="21" width="84.61083984375" y="87" x="35.26939392089844" class="er attributeBoxEven"></rect><text transform="translate(40.26939392089844,97.5)" style="dominant-baseline: middle; font-size: 10.2px;" y="0" x="0" id="text-entity-Permissao-bb0bce31-bca7-58d4-82a4-94cd917b292a-attr-4-name" class="er entityLabel">perfil_id</text><rect height="21" width="24.803314208984375" y="87" x="119.88023376464844" class="er attributeBoxEven"></rect><text transform="translate(124.88023376464844,97.5)" style="dominant-baseline: middle; font-size: 10.2px;" y="0" x="0" id="text-entity-Permissao-bb0bce31-bca7-58d4-82a4-94cd917b292a-attr-4-key" class="er entityLabel">FK</text><rect height="21" width="35.26939392089844" y="108" x="0" class="er attributeBoxOdd"></rect><text transform="translate(5,118.5)" style="dominant-baseline: middle; font-size: 10.2px;" y="0" x="0" id="text-entity-Permissao-bb0bce31-bca7-58d4-82a4-94cd917b292a-attr-5-type" class="er entityLabel">string</text><rect height="21" width="84.61083984375" y="108" x="35.26939392089844" class="er attributeBoxOdd"></rect><text transform="translate(40.26939392089844,118.5)" style="dominant-baseline: middle; font-size: 10.2px;" y="0" x="0" id="text-entity-Permissao-bb0bce31-bca7-58d4-82a4-94cd917b292a-attr-5-name" class="er entityLabel">nome_aplicacao</text><rect height="21" width="24.803314208984375" y="108" x="119.88023376464844" class="er attributeBoxOdd"></rect><text transform="translate(124.88023376464844,118.5)" style="dominant-baseline: middle; font-size: 10.2px;" y="0" x="0" id="text-entity-Permissao-bb0bce31-bca7-58d4-82a4-94cd917b292a-attr-5-key" class="er entityLabel">FK</text></g><g transform="translate(197.48218154907227,686 )" id="entity-Exibicao-ec9ed69d-ce50-58a5-8bc1-501a135af739"><rect height="87" width="117.13520812988281" y="0" x="0" class="er entityBox"></rect><text transform="translate(58.567604064941406,12)" style="dominant-baseline: middle; text-anchor: middle; font-size: 12px;" y="0" x="0" id="text-entity-Exibicao-ec9ed69d-ce50-58a5-8bc1-501a135af739" class="er entityLabel">Exibicao</text><rect height="21" width="35.26939392089844" y="24" x="0" class="er attributeBoxOdd"></rect><text transform="translate(5,34.5)" style="dominant-baseline: middle; font-size: 10.2px;" y="0" x="0" id="text-entity-Exibicao-ec9ed69d-ce50-58a5-8bc1-501a135af739-attr-1-type" class="er entityLabel">int</text><rect height="21" width="57.0625" y="24" x="35.26939392089844" class="er attributeBoxOdd"></rect><text transform="translate(40.26939392089844,34.5)" style="dominant-baseline: middle; font-size: 10.2px;" y="0" x="0" id="text-entity-Exibicao-ec9ed69d-ce50-58a5-8bc1-501a135af739-attr-1-name" class="er entityLabel">id</text><rect height="21" width="24.803314208984375" y="24" x="92.33189392089844" class="er attributeBoxOdd"></rect><text transform="translate(97.33189392089844,34.5)" style="dominant-baseline: middle; font-size: 10.2px;" y="0" x="0" id="text-entity-Exibicao-ec9ed69d-ce50-58a5-8bc1-501a135af739-attr-1-key" class="er entityLabel">PK</text><rect height="21" width="35.26939392089844" y="45" x="0" class="er attributeBoxEven"></rect><text transform="translate(5,55.5)" style="dominant-baseline: middle; font-size: 10.2px;" y="0" x="0" id="text-entity-Exibicao-ec9ed69d-ce50-58a5-8bc1-501a135af739-attr-2-type" class="er entityLabel">int</text><rect height="21" width="57.0625" y="45" x="35.26939392089844" class="er attributeBoxEven"></rect><text transform="translate(40.26939392089844,55.5)" style="dominant-baseline: middle; font-size: 10.2px;" y="0" x="0" id="text-entity-Exibicao-ec9ed69d-ce50-58a5-8bc1-501a135af739-attr-2-name" class="er entityLabel">perfil_id</text><rect height="21" width="24.803314208984375" y="45" x="92.33189392089844" class="er attributeBoxEven"></rect><text transform="translate(97.33189392089844,55.5)" style="dominant-baseline: middle; font-size: 10.2px;" y="0" x="0" id="text-entity-Exibicao-ec9ed69d-ce50-58a5-8bc1-501a135af739-attr-2-key" class="er entityLabel">FK</text><rect height="21" width="35.26939392089844" y="66" x="0" class="er attributeBoxOdd"></rect><text transform="translate(5,76.5)" style="dominant-baseline: middle; font-size: 10.2px;" y="0" x="0" id="text-entity-Exibicao-ec9ed69d-ce50-58a5-8bc1-501a135af739-attr-3-type" class="er entityLabel">string</text><rect height="21" width="57.0625" y="66" x="35.26939392089844" class="er attributeBoxOdd"></rect><text transform="translate(40.26939392089844,76.5)" style="dominant-baseline: middle; font-size: 10.2px;" y="0" x="0" id="text-entity-Exibicao-ec9ed69d-ce50-58a5-8bc1-501a135af739-attr-3-name" class="er entityLabel">elementos</text><rect height="21" width="24.803314208984375" y="66" x="92.33189392089844" class="er attributeBoxOdd"></rect><text transform="translate(97.33189392089844,76.5)" style="dominant-baseline: middle; font-size: 10.2px;" y="0" x="0" id="text-entity-Exibicao-ec9ed69d-ce50-58a5-8bc1-501a135af739-attr-3-key" class="er entityLabel"></text></g><rect height="14" width="35.021484375" y="431.5" x="362.666259765625" class="er relationshipLabelBox"></rect><text style="text-anchor: middle; dominant-baseline: middle; font-size: 12px;" y="438.5" x="380.177001953125" id="rel2261" class="er relationshipLabel">possui</text><rect height="14" width="21.015625" y="667.2089233398438" x="-37.15281105041504" class="er relationshipLabelBox"></rect><text style="text-anchor: middle; dominant-baseline: middle; font-size: 12px;" y="674.2089233398438" x="-26.64499855041504" id="rel2262" class="er relationshipLabel">tem</text><rect height="14" width="47.025390625" y="201.96371459960938" x="324.7770080566406" class="er relationshipLabelBox"></rect><text style="text-anchor: middle; dominant-baseline: middle; font-size: 12px;" y="208.96371459960938" x="348.2897033691406" id="rel2263" class="er relationshipLabel">pertence</text><rect height="14" width="21.015625" y="213" x="134.3391876220703" class="er relationshipLabelBox"></rect><text style="text-anchor: middle; dominant-baseline: middle; font-size: 12px;" y="220" x="144.8470001220703" id="rel2264" class="er relationshipLabel">tem</text><rect height="14" width="24.34375" y="1105.0650634765625" x="379.484130859375" class="er relationshipLabelBox"></rect><text style="text-anchor: middle; dominant-baseline: middle; font-size: 12px;" y="1112.0650634765625" x="391.656005859375" id="rel2265" class="er relationshipLabel">gera</text><rect height="14" width="29.013671875" y="837" x="481.1251525878906" class="er relationshipLabelBox"></rect><text style="text-anchor: middle; dominant-baseline: middle; font-size: 12px;" y="844" x="495.6319885253906" id="rel2266" class="er relationshipLabel">exibe</text><rect height="14" width="33.021484375" y="598.4995727539062" x="459.7718505859375" class="er relationshipLabelBox"></rect><text style="text-anchor: middle; dominant-baseline: middle; font-size: 12px;" y="605.4995727539062" x="476.2825927734375" id="rel2267" class="er relationshipLabel">define</text><rect height="14" width="49.69140625" y="606.0917358398438" x="247.35507202148438" class="er relationshipLabelBox"></rect><text style="text-anchor: middle; dominant-baseline: middle; font-size: 12px;" y="613.0917358398438" x="272.2007751464844" id="rel2268" class="er relationshipLabel">configura</text></g></svg>